HIERARCHY
ROOT Hips
{
	OFFSET 0.000000 35.082581 0.000000
	CHANNELS 6 Xposition Yposition Zposition Xrotation Yrotation Zrotation 
	JOINT Spine
	{
		OFFSET 0.000000 6.876099 0.125700
		CHANNELS 3 Xrotation Yrotation Zrotation
		JOINT Spine1
		{
			OFFSET 0.000000 5.730043 0.104720
			CHANNELS 3 Xrotation Yrotation Zrotation
			JOINT Spine1_split
			{
				OFFSET 0.000000 5.730043 0.104720
				CHANNELS 3 Xrotation Yrotation Zrotation
				JOINT Spine2
				{
					OFFSET 0.000000 5.730043 0.104720
					CHANNELS 3 Xrotation Yrotation Zrotation
					JOINT Neck
					{
						OFFSET 0.000000 10.314075 0.188496
						CHANNELS 3 Xrotation Yrotation Zrotation
						JOINT Head
						{
							OFFSET 0.000000 7.643700 -2.377400
							CHANNELS 3 Xrotation Yrotation Zrotation
							JOINT HeadTop_End
							{
								OFFSET 0.000000 43.788605 -13.619600
								CHANNELS 3 Xrotation Yrotation Zrotation
								End Site
								{
									OFFSET 0.000000 0.000000 0.000000
								}
							}
						}
					}
					JOINT LeftShoulder
					{
						OFFSET 2.196100 4.412489 0.087492
						CHANNELS 3 Xrotation Yrotation Zrotation
						JOINT LeftShoulder_split
						{
							OFFSET 2.196100 4.412489 0.087492
							CHANNELS 3 Xrotation Yrotation Zrotation
							JOINT LeftArm
							{
								OFFSET 8.771219 -2.981674 -0.026999
								CHANNELS 3 Xrotation Yrotation Zrotation
								JOINT LeftForeArm
								{
									OFFSET 8.512804 0.000000 -0.000000
									CHANNELS 3 Xrotation Yrotation Zrotation
									JOINT LeftHand
									{
										OFFSET 18.484802 0.000000 -0.000000
										CHANNELS 3 Xrotation Yrotation Zrotation
										JOINT LeftHandThumb1
										{
											OFFSET 2.499420 -1.158070 2.653252
											CHANNELS 3 Xrotation Yrotation Zrotation
											JOINT LeftHandThumb2
											{
												OFFSET 2.370079 -1.368366 1.368366
												CHANNELS 3 Xrotation Yrotation Zrotation
												JOINT LeftHandThumb3
												{
													OFFSET 2.676727 -1.545410 1.545409
													CHANNELS 3 Xrotation Yrotation Zrotation
													JOINT LeftHandThumb4
													{
														OFFSET 1.692226 -0.977005 0.977007
														CHANNELS 3 Xrotation Yrotation Zrotation
														End Site
														{
															OFFSET 0.000000 0.000000 0.000000
														}
													}
												}
											}
										}
										JOINT LeftHandIndex1
										{
											OFFSET 7.924831 -0.457527 2.345128
											CHANNELS 3 Xrotation Yrotation Zrotation
											JOINT LeftHandIndex2
											{
												OFFSET 3.643303 0.000000 0.000000
												CHANNELS 3 Xrotation Yrotation Zrotation
												JOINT LeftHandIndex3
												{
													OFFSET 3.810799 0.000000 0.000000
													CHANNELS 3 Xrotation Yrotation Zrotation
													JOINT LeftHandIndex4
													{
														OFFSET 2.403702 0.000000 0.000000
														CHANNELS 3 Xrotation Yrotation Zrotation
														End Site
														{
															OFFSET 0.000000 0.000000 0.000000
														}
													}
												}
											}
										}
										JOINT LeftHandMiddle1
										{
											OFFSET 8.563995 0.000000 -0.000000
											CHANNELS 3 Xrotation Yrotation Zrotation
											JOINT LeftHandMiddle2
											{
												OFFSET 3.861618 0.000000 0.000000
												CHANNELS 3 Xrotation Yrotation Zrotation
												JOINT LeftHandMiddle3
												{
													OFFSET 3.701603 0.000000 0.000000
													CHANNELS 3 Xrotation Yrotation Zrotation
													JOINT LeftHandMiddle4
													{
														OFFSET 2.322544 0.000000 0.000000
														CHANNELS 3 Xrotation Yrotation Zrotation
														End Site
														{
															OFFSET 0.000000 0.000000 0.000000
														}
													}
												}
											}
										}
										JOINT LeftHandRing1
										{
											OFFSET 8.426460 -0.424637 -3.286992
											CHANNELS 3 Xrotation Yrotation Zrotation
											JOINT LeftHandRing2
											{
												OFFSET 3.126408 0.000000 0.000000
												CHANNELS 3 Xrotation Yrotation Zrotation
												JOINT LeftHandRing3
												{
													OFFSET 3.085026 0.000000 0.000000
													CHANNELS 3 Xrotation Yrotation Zrotation
													JOINT LeftHandRing4
													{
														OFFSET 1.644005 0.000000 0.000000
														CHANNELS 3 Xrotation Yrotation Zrotation
														End Site
														{
															OFFSET 0.000000 0.000000 0.000000
														}
													}
												}
											}
										}
									}
								}
							}
						}
					}
					JOINT RightShoulder
					{
						OFFSET -2.196100 4.412496 0.070690
						CHANNELS 3 Xrotation Yrotation Zrotation
						JOINT RightShoulder_split
						{
							OFFSET -2.196100 4.412496 0.070690
							CHANNELS 3 Xrotation Yrotation Zrotation
							JOINT RightArm
							{
								OFFSET -8.771282 -2.981682 -0.094208
								CHANNELS 3 Xrotation Yrotation Zrotation
								JOINT RightForeArm
								{
									OFFSET -8.494598 0.000000 0.000000
									CHANNELS 3 Xrotation Yrotation Zrotation
									JOINT RightHand
									{
										OFFSET -18.483803 0.000000 0.000001
										CHANNELS 3 Xrotation Yrotation Zrotation
										JOINT RightHandThumb1
										{
											OFFSET -2.527351 -1.008072 2.575253
											CHANNELS 3 Xrotation Yrotation Zrotation
											JOINT RightHandThumb2
											{
												OFFSET -2.321518 -1.340328 1.340329
												CHANNELS 3 Xrotation Yrotation Zrotation
												JOINT RightHandThumb3
												{
													OFFSET -2.657753 -1.534454 1.534455
													CHANNELS 3 Xrotation Yrotation Zrotation
													JOINT RightHandThumb4
													{
														OFFSET -1.807510 -1.043568 1.043567
														CHANNELS 3 Xrotation Yrotation Zrotation
														End Site
														{
															OFFSET 0.000000 0.000000 0.000000
														}
													}
												}
											}
										}
										JOINT RightHandIndex1
										{
											OFFSET -8.811420 0.015533 2.887987
											CHANNELS 3 Xrotation Yrotation Zrotation
											JOINT RightHandIndex2
											{
												OFFSET -3.537502 0.000000 0.000000
												CHANNELS 3 Xrotation Yrotation Zrotation
												JOINT RightHandIndex3
												{
													OFFSET -3.356201 0.000000 0.000000
													CHANNELS 3 Xrotation Yrotation Zrotation
													JOINT RightHandIndex4
													{
														OFFSET -1.933098 0.000000 0.000000
														CHANNELS 3 Xrotation Yrotation Zrotation
														End Site
														{
															OFFSET 0.000000 0.000000 0.000000
														}
													}
												}
											}
										}
										JOINT RightHandMiddle1
										{
											OFFSET -8.178135 0.000000 0.000000
											CHANNELS 3 Xrotation Yrotation Zrotation
											JOINT RightHandMiddle2
											{
												OFFSET -3.901302 0.000000 0.000000
												CHANNELS 3 Xrotation Yrotation Zrotation
												JOINT RightHandMiddle3
												{
													OFFSET -3.909599 0.000000 0.000000
													CHANNELS 3 Xrotation Yrotation Zrotation
													JOINT RightHandMiddle4
													{
														OFFSET -2.376003 0.000000 0.000000
														CHANNELS 3 Xrotation Yrotation Zrotation
														End Site
														{
															OFFSET 0.000000 0.000000 0.000000
														}
													}
												}
											}
										}
										JOINT RightHandRing1
										{
											OFFSET -7.559013 0.014137 -2.865403
											CHANNELS 3 Xrotation Yrotation Zrotation
											JOINT RightHandRing2
											{
												OFFSET -3.449306 0.000000 0.000000
												CHANNELS 3 Xrotation Yrotation Zrotation
												JOINT RightHandRing3
												{
													OFFSET -3.362106 0.000000 0.000000
													CHANNELS 3 Xrotation Yrotation Zrotation
													JOINT RightHandRing4
													{
														OFFSET -2.076401 0.000000 0.000000
														CHANNELS 3 Xrotation Yrotation Zrotation
														End Site
														{
															OFFSET 0.000000 0.000000 0.000000
														}
													}
												}
											}
										}
									}
								}
							}
						}
					}
				}
			}
		}
	}
	JOINT LeftUpLeg
	{
		OFFSET 10.205400 -3.823500 0.155100
		CHANNELS 3 Xrotation Yrotation Zrotation
		JOINT LeftLeg
		{
			OFFSET 0.708757 -12.982077 0.567790
			CHANNELS 3 Xrotation Yrotation Zrotation
			JOINT LeftFoot
			{
				OFFSET -0.708756 -10.717838 -2.184338
				CHANNELS 3 Xrotation Yrotation Zrotation
				JOINT LeftToeBase
				{
					OFFSET 0.108149 -7.191104 7.560241
					CHANNELS 3 Xrotation Yrotation Zrotation
					JOINT LeftToe_End
					{
						OFFSET 0.070230 0.081724 4.490308
						CHANNELS 3 Xrotation Yrotation Zrotation
						End Site
						{
							OFFSET 0.000000 0.000000 0.000000
						}
					}
				}
			}
		}
	}
	JOINT RightUpLeg
	{
		OFFSET -10.205400 -3.823500 0.005500
		CHANNELS 3 Xrotation Yrotation Zrotation
		JOINT RightLeg
		{
			OFFSET -0.708756 -12.982134 0.610632
			CHANNELS 3 Xrotation Yrotation Zrotation
			JOINT RightFoot
			{
				OFFSET 0.708754 -10.717769 -1.945823
				CHANNELS 3 Xrotation Yrotation Zrotation
				JOINT RightToeBase
				{
					OFFSET -0.108140 -7.191069 7.372968
					CHANNELS 3 Xrotation Yrotation Zrotation
					JOINT RightToe_End
					{
						OFFSET -0.070227 0.081735 4.479403
						CHANNELS 3 Xrotation Yrotation Zrotation
						End Site
						{
							OFFSET 0.000000 0.000000 0.000000
						}
					}
				}
			}
		}
	}
}
MOTION
Frames: 4
Frame Time: 0.016667
1.473627 26.376122 4.035496 0.274143 -29.954853 -2.010325 12.059239 8.978445 -5.921714 2.723683 1.552883 -1.611382 0.000000 0.000000 0.000000 2.746779 1.530463 -1.591251 -10.034652 9.444449 7.085844 -0.518327 7.859692 -1.080339 0.000000 -0.000000 0.000000 0.920475 1.300381 -6.093297 0.000000 0.000000 0.000000 -59.606412 1.454190 -47.058801 0.000016 -109.149804 0.000027 1.999409 -7.850080 -14.416072 -6.141212 -11.690804 -6.761685 9.914111 42.595512 3.409850 -0.422798 8.108071 27.509121 -0.000000 0.000001 0.000001 0.255306 3.378220 -45.814341 5.654080 5.847760 -88.067448 2.162138 4.544823 -50.866362 -0.000001 -0.000000 0.000001 -0.461484 3.841591 -39.722686 6.450753 5.820369 -95.892871 2.182890 4.561572 -51.127723 0.000000 0.000000 0.000000 0.469712 4.966821 -39.799441 8.181034 5.368635 -113.502984 3.200480 5.218128 -63.022989 0.000001 -0.000001 -0.000000 2.590452 21.406223 -4.318652 0.000000 0.000000 0.000000 -39.313483 17.241020 46.560406 0.000005 113.312463 -0.000025 -14.981723 10.510278 -8.958527 -7.341092 13.749675 7.412332 9.855755 -44.489113 -3.903254 -0.115774 -14.513083 -28.973878 -0.000000 -0.000000 0.000001 -0.124372 -2.384774 45.108881 4.500604 -4.654553 88.071178 1.723236 -3.618376 50.920105 -0.000003 0.000002 -0.000000 -0.761617 -2.932905 39.031075 5.133896 -4.632753 95.881663 1.739747 -3.631703 51.181381 0.000000 0.000002 0.000002 0.154756 -4.068804 39.122661 6.509744 -4.273596 113.462870 2.549584 -4.153926 63.067344 0.000003 -0.000002 0.000003 -55.676676 -10.135293 28.266164 74.143862 -4.506406 -0.398413 -16.654820 -5.870807 -19.470731 0.025482 0.000002 -0.029472 0.000000 0.000000 -0.000000 0.038302 -18.769093 -36.142451 52.767050 0.868384 -6.292742 -26.504334 -16.979323 30.265094 -9.683024 -0.002889 0.444469 0.000001 0.000001 -0.000000 
1.587112 26.281281 3.726012 -0.349291 -31.721215 -1.935378 12.097979 8.760399 -5.705721 2.734891 1.491809 -1.567835 0.000000 0.000000 0.000000 2.758103 1.469819 -1.547380 -9.735262 9.809004 6.855222 -0.083817 9.175665 -1.657999 -0.000001 -0.000000 0.000000 0.919444 1.163405 -5.968190 0.000000 0.000000 0.000000 -60.124461 1.960619 -46.784156 -0.000016 -108.853182 0.000004 2.167976 -7.474101 -14.181538 -6.141216 -11.690803 -6.761680 9.914113 42.595508 3.409847 -0.422801 8.108067 27.509120 -0.000004 -0.000001 0.000003 0.255310 3.378219 -45.814341 5.654083 5.847757 -88.067448 2.162135 4.544822 -50.866362 0.000001 0.000001 -0.000001 -0.461484 3.841588 -39.722676 6.450753 5.820372 -95.892871 2.182891 4.561570 -51.127719 -0.000001 -0.000000 0.000000 0.469710 4.966828 -39.799444 8.181032 5.368635 -113.502984 3.200472 5.218127 -63.022989 -0.000000 0.000002 -0.000001 2.580103 21.227864 -4.233256 0.000000 0.000000 0.000000 -40.248867 17.716356 48.393919 0.000003 112.648193 -0.000027 -15.571918 11.037990 -9.454339 -7.341093 13.749674 7.412329 9.855750 -44.489113 -3.903258 -0.115777 -14.513080 -28.973878 -0.000003 -0.000004 -0.000002 -0.124375 -2.384777 45.108874 4.500608 -4.654557 88.071178 1.723234 -3.618373 50.920105 -0.000000 -0.000001 0.000004 -0.761616 -2.932909 39.031072 5.133895 -4.632756 95.881663 1.739752 -3.631708 51.181381 -0.000002 -0.000000 0.000000 0.154757 -4.068806 39.122658 6.509744 -4.273594 113.462870 2.549586 -4.153927 63.067344 0.000000 0.000001 -0.000001 -54.463228 -9.843769 29.344586 74.215961 -4.178516 -0.903830 -16.843009 -5.601805 -19.757388 0.026522 -0.000010 -0.030717 -0.000000 -0.000002 0.000000 -0.125160 -18.528099 -36.451306 53.752393 1.187891 -5.564976 -27.812966 -19.191761 30.797224 -8.859925 0.000045 -0.000000 0.000000 0.000001 0.000002 
1.673358 26.191483 3.414150 -0.890245 -33.284680 -1.805965 12.094124 8.521793 -5.503438 2.734733 1.427248 -1.530578 0.000000 0.000000 0.000000 2.757621 1.406164 -1.509497 -9.369960 10.141570 6.579433 0.350801 10.288570 -2.099689 -0.000000 0.000000 0.000000 0.848221 1.234084 -5.800987 0.000000 0.000000 0.000000 -60.427387 2.491305 -46.713088 -0.000087 -108.401024 -0.000059 2.365810 -7.630691 -14.447804 -6.141215 -11.690803 -6.761685 9.914109 42.595512 3.409844 -0.422802 8.108070 27.509121 -0.000004 -0.000000 0.000003 0.255307 3.378218 -45.814341 5.654085 5.847754 -88.067455 2.162138 4.544822 -50.866365 0.000002 -0.000001 -0.000001 -0.461487 3.841595 -39.722679 6.450753 5.820373 -95.892871 2.182884 4.561571 -51.127726 0.000000 0.000000 -0.000001 0.469711 4.966826 -39.799441 8.181032 5.368639 -113.502984 3.200488 5.218130 -63.022989 -0.000000 0.000003 0.000000 2.551283 20.915492 -4.132425 0.000000 0.000000 0.000000 -41.238343 18.236708 50.341428 -0.000058 112.007719 -0.000001 -15.687964 11.432318 -9.498037 -7.341094 13.749678 7.412324 9.855754 -44.489110 -3.903252 -0.115775 -14.513083 -28.973874 0.000001 0.000000 -0.000002 -0.124373 -2.384773 45.108878 4.500604 -4.654555 88.071178 1.723235 -3.618372 50.920105 -0.000001 -0.000002 -0.000003 -0.761615 -2.932904 39.031072 5.133900 -4.632755 95.881663 1.739750 -3.631707 51.181381 -0.000000 -0.000000 -0.000002 0.154755 -4.068805 39.122661 6.509742 -4.273591 113.462870 2.549588 -4.153929 63.067344 -0.000001 0.000002 -0.000003 -53.416990 -9.491163 30.308445 74.131472 -3.893530 -1.372222 -16.840311 -5.398783 -19.969088 0.021545 0.000015 -0.025116 0.000000 0.000001 -0.000000 -0.142707 -18.248126 -36.240547 54.417469 1.374976 -5.482503 -29.208604 -21.748921 31.493722 -8.321120 0.000076 -0.000001 0.000000 -0.000001 0.000001 
1.737963 26.107750 3.093773 -1.371246 -34.653941 -1.626069 12.076614 8.274653 -5.305063 2.730773 1.361147 -1.496503 0.000000 0.000000 0.000000 2.753142 1.341179 -1.474809 -8.933132 10.442602 6.282898 0.750987 11.295834 -2.539360 -0.000000 -0.000000 -0.000000 0.768332 1.378882 -5.675801 0.000000 0.000000 0.000000 -60.613933 2.997519 -46.737987 -0.000037 -107.926578 -0.000027 2.461841 -7.936550 -14.879203 -6.141219 -11.690801 -6.761685 9.914108 42.595512 3.409846 -0.422802 8.108066 27.509121 -0.000004 0.000003 0.000002 0.255310 3.378218 -45.814337 5.654081 5.847759 -88.067455 2.162134 4.544824 -50.866362 -0.000001 -0.000000 0.000001 -0.461485 3.841593 -39.722679 6.450753 5.820371 -95.892871 2.182894 4.561570 -51.127723 0.000003 -0.000002 0.000001 0.469714 4.966828 -39.799444 8.181031 5.368635 -113.502984 3.200485 5.218128 -63.022989 0.000001 -0.000002 0.000001 2.521664 20.583219 -4.040478 0.000000 0.000000 0.000000 -42.285411 18.731719 52.282154 -0.000010 111.411307 -0.000015 -15.585571 11.755232 -9.399780 -7.341096 13.749680 7.412331 9.855764 -44.489117 -3.903259 -0.115780 -14.513080 -28.973874 -0.000000 0.000000 0.000003 -0.124376 -2.384774 45.108878 4.500603 -4.654554 88.071178 1.723235 -3.618373 50.920102 0.000001 0.000001 0.000001 -0.761617 -2.932903 39.031072 5.133904 -4.632757 95.881663 1.739745 -3.631697 51.181377 0.000001 0.000000 0.000001 0.154754 -4.068803 39.122661 6.509737 -4.273595 113.462870 2.549591 -4.153931 63.067344 -0.000001 -0.000000 -0.000001 -52.530790 -9.103615 31.134311 73.863845 -3.625059 -1.791799 -16.610638 -5.270369 -20.127475 0.015430 0.000009 -0.017931 0.000000 -0.000001 0.000000 -0.300127 -17.872368 -36.057788 55.053220 1.366547 -5.544234 -30.809163 -23.753578 32.054423 -7.072060 0.000104 0.000013 0.000000 0.000001 -0.000000 
